#N canvas 98 253 1584 586 12;
#X obj 528 70 netreceive -u -b;
#X obj 528 98 oscparse;
#X obj 600 127 print;
#X msg 541 40 listen 0;
#X obj 13 212 netsend -u -b;
#X msg 184 9 disconnect;
#X floatatom 13 269 2 0 0 0 - - - 0;
#X obj 13 243 tgl 19 0 empty empty empty 0 -10 0 12 #dfdfdf #000000 #000000 0 1;
#X msg 528 12 listen 5000;
#X msg 11 9 connect localhost 5001;
#X msg 13 42 0;
#X msg 49 42 20;
#X obj 13 186 oscformat;
#X msg 24 157 set setSensorConfiguration;
#X obj 13 125 t l b;
#X msg 13 100 list \$1 \$2;
#X msg 169 70 list pressure \$1;
#X msg 169 44 0;
#X msg 209 44 20;
#X obj 528 127 list trim;
#X obj 527 183 route left right;
#X obj 526 220 unpack 0 0 0;
#X floatatom 526 250 5 0 0 0 - - - 0;
#X floatatom 568 251 5 0 0 0 - - - 0;
#X floatatom 611 251 5 0 0 0 - - - 0;
#X obj 964 187 route left right;
#X obj 526 305 vsl 19 162 0 127 0 0 empty empty empty 0 -9 0 12 #fcfcfc #000000 #000000 0 1;
#N canvas 359 391 450 300 np 0;
#X obj 155 24 inlet;
#X obj 153 221 outlet;
#X obj 151 117 + 0.5;
#X obj 151 177 * 127;
#X obj 153 59 / 180;
#X connect 0 0 4 0;
#X connect 2 0 3 0;
#X connect 3 0 1 0;
#X connect 4 0 2 0;
#X restore 526 276 pd np;
#N canvas 253 577 450 300 ny 0;
#X obj 155 24 inlet;
#X obj 153 162 outlet;
#X obj 153 78 / 360;
#X obj 153 136 * 127;
#X obj 153 105 + 0.5;
#X obj 152 51 * -1;
#X connect 0 0 5 0;
#X connect 2 0 4 0;
#X connect 3 0 1 0;
#X connect 4 0 3 0;
#X connect 5 0 2 0;
#X restore 569 274 pd ny;
#X floatatom 964 251 6 0 0 0 - - - 0;
#X obj 964 310 vsl 19 162 0 127 0 0 empty empty empty 0 -9 0 12 #fcfcfc #000000 #000000 0 1;
#X obj 964 278 * 127;
#X obj 964 219 unpack 0 0;
#X floatatom 1015 251 6 0 0 0 - - - 0;
#X obj 1015 310 vsl 19 162 0 127 0 0 empty empty empty 0 -9 0 12 #fcfcfc #000000 #000000 0 1;
#X obj 1015 278 * 127;
#X floatatom 1070 251 6 0 0 0 - - - 0;
#X obj 1070 310 vsl 19 162 0 127 0 0 empty empty empty 0 -9 0 12 #fcfcfc #000000 #000000 0 1;
#X obj 1070 278 * 127;
#X obj 1070 219 unpack 0 0;
#X floatatom 1121 251 6 0 0 0 - - - 0;
#X obj 1121 310 vsl 19 162 0 127 0 0 empty empty empty 0 -9 0 12 #fcfcfc #000000 #000000 0 1;
#X obj 1121 278 * 127;
#N canvas 359 391 450 300 nr 0;
#X obj 155 24 inlet;
#X obj 153 221 outlet;
#X obj 151 137 + 0.5;
#X obj 151 177 * 127;
#X obj 153 96 / 360;
#X obj 152 60 * -1;
#X connect 0 0 5 0;
#X connect 2 0 3 0;
#X connect 3 0 1 0;
#X connect 4 0 2 0;
#X connect 5 0 4 0;
#X restore 613 276 pd nr;
#X msg 13 69 list gameRotation \$1;
#X obj 734 219 unpack 0 0 0;
#X floatatom 734 249 5 0 0 0 - - - 0;
#X floatatom 776 250 5 0 0 0 - - - 0;
#X floatatom 819 250 5 0 0 0 - - - 0;
#X obj 734 304 vsl 19 162 0 127 0 0 empty empty empty 0 -9 0 12 #fcfcfc #000000 #000000 0 1;
#N canvas 359 391 450 300 np 0;
#X obj 155 24 inlet;
#X obj 153 221 outlet;
#X obj 151 117 + 0.5;
#X obj 151 177 * 127;
#X obj 153 59 / 180;
#X connect 0 0 4 0;
#X connect 2 0 3 0;
#X connect 3 0 1 0;
#X connect 4 0 2 0;
#X restore 734 275 pd np;
#X obj 528 155 route gameRotation pressure linearAcceleration;
#X msg 296 43 0;
#X msg 336 43 20;
#X msg 296 69 list linearAcceleration \$1;
#X obj 1196 189 route left right;
#X obj 1195 226 unpack 0 0 0;
#X floatatom 1195 256 5 0 0 0 - - - 0;
#X floatatom 1237 257 5 0 0 0 - - - 0;
#X floatatom 1280 257 5 0 0 0 - - - 0;
#X obj 1195 311 vsl 19 162 0 127 0 0 empty empty empty 0 -9 0 12 #fcfcfc #000000 #000000 0 1;
#X obj 1239 310 vsl 19 162 0 127 0 0 empty empty empty 0 -9 0 12 #fcfcfc #000000 #000000 0 1;
#X obj 1282 310 vsl 19 162 0 127 0 0 empty empty empty 0 -9 0 12 #fcfcfc #000000 #000000 0 1;
#X obj 1334 223 unpack 0 0 0;
#N canvas 173 357 450 300 na 0;
#X obj 196 14 inlet;
#X obj 197 207 outlet;
#X obj 197 177 * 127;
#X obj 198 86 / 7;
#X obj 195 124 + 0.5;
#X connect 0 0 3 0;
#X connect 2 0 1 0;
#X connect 3 0 4 0;
#X connect 4 0 2 0;
#X restore 1193 280 pd na;
#X obj 555 306 hsl 162 19 0 127 0 0 empty empty empty -2 -10 0 12 #fcfcfc #000000 #000000 0 1;
#X obj 555 333 hsl 162 19 0 127 0 0 empty empty empty -2 -10 0 12 #fcfcfc #000000 #000000 0 1;
#N canvas 253 577 450 300 ny 0;
#X obj 155 24 inlet;
#X obj 153 162 outlet;
#X obj 153 78 / 360;
#X obj 153 136 * 127;
#X obj 153 105 + 0.5;
#X obj 152 51 * -1;
#X connect 0 0 5 0;
#X connect 2 0 4 0;
#X connect 3 0 1 0;
#X connect 4 0 3 0;
#X connect 5 0 2 0;
#X restore 778 274 pd ny;
#N canvas 359 391 450 300 nr 0;
#X obj 155 24 inlet;
#X obj 153 221 outlet;
#X obj 151 137 + 0.5;
#X obj 151 177 * 127;
#X obj 153 96 / 360;
#X obj 152 60 * -1;
#X connect 0 0 5 0;
#X connect 2 0 3 0;
#X connect 3 0 1 0;
#X connect 4 0 2 0;
#X connect 5 0 4 0;
#X restore 822 276 pd nr;
#X obj 770 308 hsl 162 19 0 127 0 0 empty empty empty -2 -10 0 12 #fcfcfc #000000 #000000 0 1;
#X obj 770 335 hsl 162 19 0 127 0 0 empty empty empty -2 -10 0 12 #fcfcfc #000000 #000000 0 1;
#N canvas 173 357 450 300 na 0;
#X obj 196 14 inlet;
#X obj 197 207 outlet;
#X obj 197 177 * 127;
#X obj 198 86 / 7;
#X obj 195 124 + 0.5;
#X connect 0 0 3 0;
#X connect 2 0 1 0;
#X connect 3 0 4 0;
#X connect 4 0 2 0;
#X restore 1238 282 pd na;
#N canvas 173 357 450 300 na 0;
#X obj 196 14 inlet;
#X obj 197 207 outlet;
#X obj 197 177 * 127;
#X obj 198 86 / 7;
#X obj 195 124 + 0.5;
#X connect 0 0 3 0;
#X connect 2 0 1 0;
#X connect 3 0 4 0;
#X connect 4 0 2 0;
#X restore 1282 280 pd na;
#X floatatom 1334 256 5 0 0 0 - - - 0;
#X floatatom 1376 257 5 0 0 0 - - - 0;
#X floatatom 1419 257 5 0 0 0 - - - 0;
#X obj 1334 311 vsl 19 162 0 127 0 0 empty empty empty 0 -9 0 12 #fcfcfc #000000 #000000 0 1;
#X obj 1378 310 vsl 19 162 0 127 0 0 empty empty empty 0 -9 0 12 #fcfcfc #000000 #000000 0 1;
#X obj 1421 310 vsl 19 162 0 127 0 0 empty empty empty 0 -9 0 12 #fcfcfc #000000 #000000 0 1;
#N canvas 173 357 450 300 na 0;
#X obj 196 14 inlet;
#X obj 197 207 outlet;
#X obj 197 177 * 127;
#X obj 198 86 / 7;
#X obj 195 124 + 0.5;
#X connect 0 0 3 0;
#X connect 2 0 1 0;
#X connect 3 0 4 0;
#X connect 4 0 2 0;
#X restore 1332 280 pd na;
#N canvas 173 357 450 300 na 0;
#X obj 196 14 inlet;
#X obj 197 207 outlet;
#X obj 197 177 * 127;
#X obj 198 86 / 7;
#X obj 195 124 + 0.5;
#X connect 0 0 3 0;
#X connect 2 0 1 0;
#X connect 3 0 4 0;
#X connect 4 0 2 0;
#X restore 1377 282 pd na;
#N canvas 173 357 450 300 na 0;
#X obj 196 14 inlet;
#X obj 197 207 outlet;
#X obj 197 177 * 127;
#X obj 198 86 / 7;
#X obj 195 124 + 0.5;
#X connect 0 0 3 0;
#X connect 2 0 1 0;
#X connect 3 0 4 0;
#X connect 4 0 2 0;
#X restore 1421 280 pd na;
#X connect 0 0 1 0;
#X connect 1 0 19 0;
#X connect 3 0 0 0;
#X connect 4 0 7 0;
#X connect 5 0 4 0;
#X connect 7 0 6 0;
#X connect 8 0 0 0;
#X connect 9 0 4 0;
#X connect 10 0 44 0;
#X connect 11 0 44 0;
#X connect 12 0 4 0;
#X connect 13 0 12 0;
#X connect 14 0 12 0;
#X connect 14 1 13 0;
#X connect 15 0 14 0;
#X connect 16 0 15 0;
#X connect 17 0 16 0;
#X connect 18 0 16 0;
#X connect 19 0 2 0;
#X connect 19 0 51 0;
#X connect 20 0 21 0;
#X connect 20 1 45 0;
#X connect 21 0 22 0;
#X connect 21 1 23 0;
#X connect 21 2 24 0;
#X connect 22 0 27 0;
#X connect 23 0 28 0;
#X connect 24 0 43 0;
#X connect 25 0 32 0;
#X connect 25 1 39 0;
#X connect 27 0 26 0;
#X connect 28 0 65 0;
#X connect 29 0 31 0;
#X connect 31 0 30 0;
#X connect 32 0 29 0;
#X connect 32 1 33 0;
#X connect 33 0 35 0;
#X connect 35 0 34 0;
#X connect 36 0 38 0;
#X connect 38 0 37 0;
#X connect 39 0 36 0;
#X connect 39 1 40 0;
#X connect 40 0 42 0;
#X connect 42 0 41 0;
#X connect 43 0 66 0;
#X connect 44 0 15 0;
#X connect 45 0 46 0;
#X connect 45 1 47 0;
#X connect 45 2 48 0;
#X connect 46 0 50 0;
#X connect 47 0 67 0;
#X connect 48 0 68 0;
#X connect 50 0 49 0;
#X connect 51 0 20 0;
#X connect 51 1 25 0;
#X connect 51 2 55 0;
#X connect 52 0 54 0;
#X connect 53 0 54 0;
#X connect 54 0 15 0;
#X connect 55 0 56 0;
#X connect 55 1 63 0;
#X connect 56 0 57 0;
#X connect 56 1 58 0;
#X connect 56 2 59 0;
#X connect 57 0 64 0;
#X connect 58 0 71 0;
#X connect 59 0 72 0;
#X connect 63 0 73 0;
#X connect 63 1 74 0;
#X connect 63 2 75 0;
#X connect 64 0 60 0;
#X connect 67 0 69 0;
#X connect 68 0 70 0;
#X connect 71 0 61 0;
#X connect 72 0 62 0;
#X connect 73 0 79 0;
#X connect 74 0 80 0;
#X connect 75 0 81 0;
#X connect 79 0 76 0;
#X connect 80 0 77 0;
#X connect 81 0 78 0;
