#N canvas 632 237 684 588 12;
#X obj 15 78 netreceive -u -b;
#X obj 15 106 oscparse;
#X obj 15 136 print;
#X msg 28 48 listen 0;
#X obj 224 296 netsend -u -b;
#X msg 249 270 disconnect;
#X floatatom 224 353 2 0 0 0 - - - 0;
#X obj 224 327 tgl 19 0 empty empty empty 0 -10 0 12 #dfdfdf #000000 #000000 0 1;
#X msg 15 20 listen 5000;
#X msg 236 242 connect localhost 5001;
#X msg 214 36 0;
#X msg 268 37 20;
#X obj 224 200 oscformat;
#X msg 235 165 set setSensorConfiguration;
#X obj 224 139 t l b;
#X msg 224 114 list \$1 \$2;
#X msg 224 83 list orientation \$1;
#X msg 380 84 list pressure \$1;
#X msg 377 43 0;
#X msg 431 44 20;
#X connect 0 0 1 0;
#X connect 1 0 2 0;
#X connect 3 0 0 0;
#X connect 4 0 7 0;
#X connect 5 0 4 0;
#X connect 7 0 6 0;
#X connect 8 0 0 0;
#X connect 9 0 4 0;
#X connect 10 0 16 0;
#X connect 11 0 16 0;
#X connect 12 0 4 0;
#X connect 13 0 12 0;
#X connect 14 0 12 0;
#X connect 14 1 13 0;
#X connect 15 0 14 0;
#X connect 16 0 15 0;
#X connect 17 0 15 0;
#X connect 18 0 17 0;
#X connect 19 0 17 0;
