#N canvas 46 190 1493 569 12;
#X obj 528 70 netreceive -u -b;
#X obj 528 98 oscparse;
#X obj 600 127 print;
#X msg 541 40 listen 0;
#X obj 13 212 netsend -u -b;
#X msg 184 9 disconnect;
#X floatatom 13 269 2 0 0 0 - - - 0;
#X obj 13 243 tgl 19 0 empty empty empty 0 -10 0 12 #dfdfdf #000000 #000000 0 1;
#X msg 528 12 listen 5000;
#X msg 11 9 connect localhost 5001;
#X msg 13 42 0;
#X msg 49 42 20;
#X obj 13 186 oscformat;
#X msg 24 157 set setSensorConfiguration;
#X obj 13 125 t l b;
#X msg 13 100 list \$1 \$2;
#X msg 169 70 list pressure \$1;
#X msg 169 44 0;
#X msg 209 44 20;
#X obj 528 127 list trim;
#X obj 527 183 route left right;
#X obj 526 220 unpack 0 0 0;
#X floatatom 526 250 5 0 0 0 - - - 0;
#X floatatom 568 251 5 0 0 0 - - - 0;
#X floatatom 611 251 5 0 0 0 - - - 0;
#X obj 964 187 route left right;
#X obj 525 291 vsl 19 162 -90 90 0 0 empty empty pitch 0 -9 0 12 #fcfcfc #000000 #000000 0 1;
#X floatatom 964 251 6 0 0 0 - - - 0;
#X obj 964 290 vsl 19 162 0 1 0 0 empty empty pressure 0 -9 0 12 #fcfcfc #000000 #000000 0 1;
#X obj 964 219 unpack 0 0;
#X floatatom 1015 251 6 0 0 0 - - - 0;
#X floatatom 1070 251 6 0 0 0 - - - 0;
#X obj 1070 219 unpack 0 0;
#X floatatom 1121 251 6 0 0 0 - - - 0;
#X msg 13 69 list gameRotation \$1;
#X obj 734 219 unpack 0 0 0;
#X obj 528 155 route gameRotation pressure linearAcceleration;
#X msg 296 43 0;
#X msg 336 43 20;
#X msg 296 69 list linearAcceleration \$1;
#X obj 1196 189 route left right;
#X obj 1195 226 unpack 0 0 0;
#X floatatom 1195 256 5 0 0 0 - - - 0;
#X floatatom 1237 257 5 0 0 0 - - - 0;
#X floatatom 1280 257 5 0 0 0 - - - 0;
#X obj 1334 223 unpack 0 0 0;
#X floatatom 1334 256 5 0 0 0 - - - 0;
#X floatatom 1376 257 5 0 0 0 - - - 0;
#X floatatom 1419 257 5 0 0 0 - - - 0;
#X floatatom 733 249 5 0 0 0 - - - 0;
#X floatatom 775 250 5 0 0 0 - - - 0;
#X floatatom 818 250 5 0 0 0 - - - 0;
#X obj 732 290 vsl 19 162 -90 90 0 0 empty empty pitch 0 -9 0 12 #fcfcfc #000000 #000000 0 1;
#X obj 776 291 hsl 100 19 180 -180 0 0 empty empty yaw -2 -10 0 12 #fcfcfc #000000 #000000 0 1;
#X obj 774 332 hsl 100 19 180 -180 0 0 empty empty roll -2 -10 0 12 #fcfcfc #000000 #000000 0 1;
#X obj 566 302 hsl 100 19 180 -180 0 0 empty empty yaw -2 -10 0 12 #fcfcfc #000000 #000000 0 1;
#X obj 564 343 hsl 100 19 180 -180 0 0 empty empty roll -2 -10 0 12 #fcfcfc #000000 #000000 0 1;
#X obj 1069 289 vsl 19 162 0 1 0 0 empty empty pressure 0 -9 0 12 #fcfcfc #000000 #000000 0 1;
#X obj 1123 301 vsl 19 162 0 1 0 0 empty empty y -10 0 0 12 #fcfcfc #000000 #000000 0 1;
#X obj 1239 342 vsl 19 162 -6 6 0 0 empty empty y -10 0 0 12 #fcfcfc #000000 #000000 0 1;
#X obj 1285 344 vsl 19 162 -6 6 0 0 empty empty z -10 0 0 12 #fcfcfc #000000 #000000 0 1;
#X obj 1199 305 hsl 100 19 -6 6 0 0 empty empty x -12 4 0 12 #fcfcfc #000000 #000000 0 1;
#X obj 1015 299 vsl 19 162 0 1 0 0 empty empty y -10 0 0 12 #fcfcfc #000000 #000000 0 1;
#X obj 1375 344 vsl 19 162 -6 6 0 0 empty empty y -10 0 0 12 #fcfcfc #000000 #000000 0 1;
#X obj 1421 346 vsl 19 162 -6 6 0 0 empty empty z -10 0 0 12 #fcfcfc #000000 #000000 0 1;
#X obj 1335 307 hsl 100 19 -6 6 0 0 empty empty x -12 4 0 12 #fcfcfc #000000 #000000 0 1;
#X connect 0 0 1 0;
#X connect 1 0 19 0;
#X connect 3 0 0 0;
#X connect 4 0 7 0;
#X connect 5 0 4 0;
#X connect 7 0 6 0;
#X connect 8 0 0 0;
#X connect 9 0 4 0;
#X connect 10 0 34 0;
#X connect 11 0 34 0;
#X connect 12 0 4 0;
#X connect 13 0 12 0;
#X connect 14 0 12 0;
#X connect 14 1 13 0;
#X connect 15 0 14 0;
#X connect 16 0 15 0;
#X connect 17 0 16 0;
#X connect 18 0 16 0;
#X connect 19 0 2 0;
#X connect 19 0 36 0;
#X connect 20 0 21 0;
#X connect 20 1 35 0;
#X connect 21 0 22 0;
#X connect 21 1 23 0;
#X connect 21 2 24 0;
#X connect 22 0 26 0;
#X connect 23 0 55 0;
#X connect 24 0 56 0;
#X connect 25 0 29 0;
#X connect 25 1 32 0;
#X connect 27 0 28 0;
#X connect 29 0 27 0;
#X connect 29 1 30 0;
#X connect 30 0 62 0;
#X connect 31 0 57 0;
#X connect 32 0 31 0;
#X connect 32 1 33 0;
#X connect 33 0 58 0;
#X connect 34 0 15 0;
#X connect 35 0 49 0;
#X connect 35 1 50 0;
#X connect 35 2 51 0;
#X connect 36 0 20 0;
#X connect 36 1 25 0;
#X connect 36 2 40 0;
#X connect 37 0 39 0;
#X connect 38 0 39 0;
#X connect 39 0 15 0;
#X connect 40 0 41 0;
#X connect 40 1 45 0;
#X connect 41 0 42 0;
#X connect 41 1 43 0;
#X connect 41 2 44 0;
#X connect 42 0 61 0;
#X connect 43 0 59 0;
#X connect 44 0 60 0;
#X connect 45 0 46 0;
#X connect 45 1 47 0;
#X connect 45 2 48 0;
#X connect 46 0 65 0;
#X connect 47 0 63 0;
#X connect 48 0 64 0;
#X connect 49 0 52 0;
#X connect 50 0 53 0;
#X connect 51 0 54 0;
