#N canvas 332 249 246 338 12;
#X obj 45 25 inlet;
#X obj 48 151 -;
#X obj 70 110 float 0;
#X obj 47 55 t b f f;
#X floatatom 114 193 5 0 0 0 - - - 0;
#X obj 114 163 delay 20 1 msec;
#X obj 59 237 sig~;
#X obj 51 274 outlet~;
#X connect 0 0 3 0;
#X connect 1 0 6 0;
#X connect 2 0 1 1;
#X connect 3 0 5 0;
#X connect 3 1 2 0;
#X connect 3 2 1 0;
#X connect 4 0 6 0;
#X connect 5 0 4 0;
#X connect 6 0 7 0;
