#N canvas 121 529 266 381 12;
#X obj 45 13 inlet;
#X obj 45 113 -;
#X obj 70 84 float 0;
#X floatatom 118 265 5 0 0 0 - - - 0;
#X obj 56 292 sig~;
#X obj 51 349 outlet~;
#X obj 54 318 lop~ 5;
#X obj 38 145 pow 1;
#X obj 45 44 t f f;
#X obj 73 206 t b f;
#X obj 118 240 delay 50 1 msec;
#X obj 34 172 moses 0.04;
#X connect 0 0 8 0;
#X connect 1 0 7 0;
#X connect 2 0 1 1;
#X connect 3 0 4 0;
#X connect 4 0 6 0;
#X connect 6 0 5 0;
#X connect 7 0 11 0;
#X connect 8 0 2 0;
#X connect 8 1 1 0;
#X connect 9 0 10 0;
#X connect 9 1 4 0;
#X connect 10 0 3 0;
#X connect 11 1 9 0;
