#N canvas 396 38 544 649 12;
#X obj 295 69 netreceive -u -b;
#X obj 295 97 oscparse;
#X obj 367 126 print;
#X msg 308 39 listen 0;
#X obj 13 212 netsend -u -b;
#X msg 184 9 disconnect;
#X floatatom 13 269 2 0 0 0 - - - 0;
#X obj 13 243 tgl 19 0 empty empty empty 0 -10 0 12 #dfdfdf #000000 #000000 0 1;
#X msg 295 11 listen 5000;
#X msg 11 9 connect localhost 5001;
#X obj 13 186 oscformat;
#X msg 24 157 set setSensorConfiguration;
#X obj 13 125 t l b;
#X msg 13 100 list \$1 \$2;
#X msg 25 67 list pressure \$1;
#X msg 25 41 0;
#X obj 295 126 list trim;
#X obj 295 183 route left right;
#X floatatom 295 247 6 0 0 0 - - - 0;
#X obj 295 286 vsl 19 162 0 1 0 0 empty empty pressure 0 -9 0 12 #fcfcfc #000000 #000000 0 1;
#X obj 295 215 unpack 0 0;
#X floatatom 346 247 6 0 0 0 - - - 0;
#X floatatom 401 247 6 0 0 0 - - - 0;
#X obj 401 215 unpack 0 0;
#X floatatom 452 247 6 0 0 0 - - - 0;
#X obj 346 295 vsl 19 162 0 1 0 0 empty empty y -10 0 0 12 #fcfcfc #000000 #000000 0 1;
#X obj 355 599 dac~;
#X obj 295 154 route pressure;
#X obj 277 461 diff;
#X obj 81 382 loadbang;
#X obj 276 485 texture;
#X obj 81 413 vradio 19 1 0 5 empty empty empty 0 -10 0 12 #fcfcfc #000000 #000000 0;
#X text 105 413 snow;
#X text 106 431 grass;
#X text 105 452 dirt;
#X text 105 472 gravel;
#X text 106 494 wood;
#N canvas 440 478 256 165 texture-route 0;
#X obj 110 16 inlet;
#X obj 80 47 route 0 1 2 3 4;
#X msg 63 75 grass;
#X msg 111 76 dirt;
#X msg 152 75 gravel;
#X msg 208 75 wood;
#X msg 23 74 snow;
#X obj 72 108 send texture-type;
#X connect 0 0 1 0;
#X connect 1 0 6 0;
#X connect 1 1 2 0;
#X connect 1 2 3 0;
#X connect 1 3 4 0;
#X connect 1 4 5 0;
#X connect 2 0 7 0;
#X connect 3 0 7 0;
#X connect 4 0 7 0;
#X connect 5 0 7 0;
#X connect 6 0 7 0;
#X restore 82 521 pd texture-route;
#X obj 284 557 *~ 1;
#X obj 345 466 diff;
#X obj 346 490 texture;
#X obj 284 529 +~;
#X obj 404 284 vsl 19 162 0 1 0 0 empty empty pressure 0 -9 0 12 #fcfcfc #000000 #000000 0 1;
#X obj 458 289 vsl 19 162 0 1 0 0 empty empty y -10 0 0 12 #fcfcfc #000000 #000000 0 1;
#X obj 414 464 diff;
#X obj 413 488 texture;
#X obj 469 466 diff;
#X obj 470 490 texture;
#X obj 421 532 +~;
#X obj 422 560 *~ 1;
#X floatatom 353 546 5 0 0 0 - - - 0;
#X msg 65 41 10;
#X connect 0 0 1 0;
#X connect 1 0 16 0;
#X connect 3 0 0 0;
#X connect 4 0 7 0;
#X connect 5 0 4 0;
#X connect 7 0 6 0;
#X connect 8 0 0 0;
#X connect 9 0 4 0;
#X connect 10 0 4 0;
#X connect 11 0 10 0;
#X connect 12 0 10 0;
#X connect 12 1 11 0;
#X connect 13 0 12 0;
#X connect 14 0 13 0;
#X connect 15 0 14 0;
#X connect 16 0 2 0;
#X connect 16 0 27 0;
#X connect 17 0 20 0;
#X connect 17 1 23 0;
#X connect 18 0 19 0;
#X connect 19 0 28 0;
#X connect 20 0 18 0;
#X connect 20 1 21 0;
#X connect 21 0 25 0;
#X connect 22 0 42 0;
#X connect 23 0 22 0;
#X connect 23 1 24 0;
#X connect 24 0 43 0;
#X connect 25 0 39 0;
#X connect 27 0 17 0;
#X connect 28 0 30 0;
#X connect 29 0 31 0;
#X connect 30 0 41 0;
#X connect 31 0 37 0;
#X connect 38 0 26 0;
#X connect 39 0 40 0;
#X connect 40 0 41 1;
#X connect 41 0 38 0;
#X connect 42 0 44 0;
#X connect 43 0 46 0;
#X connect 44 0 45 0;
#X connect 45 0 48 0;
#X connect 46 0 47 0;
#X connect 47 0 48 1;
#X connect 48 0 49 0;
#X connect 49 0 26 1;
#X connect 50 0 49 1;
#X connect 50 0 38 1;
#X connect 51 0 14 0;
